<?xml version='1.0' encoding='UTF-8' standalone='no'?>
<!-- Created with Fritzing (http://www.fritzing.org/) -->
<svg xmlns:svg='http://www.w3.org/2000/svg' xmlns='http://www.w3.org/2000/svg' version='1.2' baseProfile='tiny' x='0in' y='0in' width='4.94695in' height='2.69386in' viewBox='0 0 356.18 193.958' >
<g partID='854171930'><g transform='translate(31.5429,11.5707)' ><g transform='matrix(-1,0,0,1,0,0)'  ><g id="schematic">
<polyline points="7.55,13.636,11.244,13.636,13.973,16.35,17.41,16.35,21.95,13.284" stroke="#000000" stroke-linejoin="round" stroke-width="0.7" stroke-linecap="round" fill="none"/>
<polyline points="7.55,20.748,12.16,20.748,20.327,20.748" stroke="#000000" stroke-linejoin="round" stroke-width="0.7" stroke-linecap="round" fill="none"/>
<polyline points="21.95,28.8,7.55,28.8,7.55,7.2,21.95,7.2" stroke="#000000" stroke-linejoin="round" stroke-width="0.9" stroke-linecap="round" id="box_1_" fill="none"/>
<polygon points="10.385,14.817,8.891,16.866,9.91,17.067,8.632,19.555,11.131,16.55,10.068,16.278"/>
<g height="0.625" y="20.438" id="connector2terminal" fill="none" width="1.275"/>
<g height="0.625" y="20.438" id="connector1terminal" fill="none" width="1.275"/>
<g height="0.625" y="13.379" id="connector0terminal" fill="none" width="1.275"/>
<line stroke="#787878" stroke-linejoin="round" x1="7.55" y2="20.748" stroke-width="0.7" stroke-linecap="round" x2="0.35" id="connector2pin" fill="none" y1="20.748"/>
<line stroke="#787878" stroke-linejoin="round" x1="7.55" y2="13.692" stroke-width="0.7" stroke-linecap="round" x2="0.35" id="connector0pin" fill="none" y1="13.692"/>
<line stroke="#787878" stroke-linejoin="round" x1="7.55" y2="20.748" stroke-width="0.7" stroke-linecap="round" x2="0.35" id="connector1pin" fill="none" y1="20.748"/>
<g transform="matrix(1, 0, 0, 1, 19.3843, 25.585)">
<text font-family="'DroidSans'" font-size="4.5" fill="#787878">-</text>
</g>
<g transform="matrix(1, 0, 0, 1, 18.5503, 12.1563)">
<text font-family="'DroidSans'" font-size="4.5" fill="#787878">+</text>
</g>
</g>
</g></g></g><g partID='854172330'><g transform='translate(356.18,32.4623)' ><g transform='matrix(-1,0,0,1,0,0)'  ><g id="schematic">
<rect height="128.7" stroke="#000000" y="14.85" class="interior rect" stroke-width="0.9" stroke-linecap="round" x="14.85" fill="#FFFFFF" width="56.7"/>
<line stroke="none" x1="71.6499" class="pin" y2="28.8" stroke-width="0" stroke-linecap="round" x2="86.0499" fill="none" id="connector45pin" y1="28.8"/>
<g height="0.699999" stroke="none" y="28.4499" class="terminal" stroke-width="0" x="86.0499" fill="none" id="connector45terminal" width="0.699999"/>
<line stroke="#787878" x1="71.6499" class="pin" y2="28.8" stroke-width="0.699999" stroke-linecap="round" x2="86.0499" fill="none" id="connector57pin" y1="28.8"/>
<text stroke="none" font-family="'Droid Sans'" y="29.4999" class="text" font-size="3.49999" stroke-width="0" fill="#8c8c8c" x="70.2499" text-anchor="end">D13/SCK</text>
<rect height="0.699999" stroke="none" y="28.4499" class="terminal" stroke-width="0" x="86.0499" fill="none" id="connector57terminal" width="0.699999"/>
<line stroke="none" x1="71.6499" class="pin" y2="36" stroke-width="0" stroke-linecap="round" x2="86.0499" fill="none" id="connector30pin" y1="36"/>
<g height="0.699999" stroke="none" y="35.6499" class="terminal" stroke-width="0" x="86.0499" fill="none" id="connector30terminal" width="0.699999"/>
<line stroke="#787878" x1="71.6499" class="pin" y2="36" stroke-width="0.699999" stroke-linecap="round" x2="86.0499" fill="none" id="connector55pin" y1="36"/>
<text stroke="none" font-family="'Droid Sans'" y="36.6999" class="text" font-size="3.49999" stroke-width="0" fill="#8c8c8c" x="70.2499" text-anchor="end">D12/MISO</text>
<rect height="0.699999" stroke="none" y="35.6499" class="terminal" stroke-width="0" x="86.0499" fill="none" id="connector55terminal" width="0.699999"/>
<line stroke="none" x1="71.6499" class="pin" y2="43.2" stroke-width="0" stroke-linecap="round" x2="86.0499" fill="none" id="connector29pin" y1="43.2"/>
<g height="0.699999" stroke="none" y="42.8499" class="terminal" stroke-width="0" x="86.0499" fill="none" id="connector29terminal" width="0.699999"/>
<line stroke="#787878" x1="71.6499" class="pin" y2="43.2" stroke-width="0.699999" stroke-linecap="round" x2="86.0499" fill="none" id="connector58pin" y1="43.2"/>
<text stroke="none" font-family="'Droid Sans'" y="43.8999" class="text" font-size="3.49999" stroke-width="0" fill="#8c8c8c" x="70.2499" text-anchor="end">D11/MOSI</text>
<rect height="0.699999" stroke="none" y="42.8499" class="terminal" stroke-width="0" x="86.0499" fill="none" id="connector58terminal" width="0.699999"/>
<line stroke="#787878" x1="71.6499" class="pin" y2="50.4" stroke-width="0.699999" stroke-linecap="round" x2="86.0499" fill="none" id="connector28pin" y1="50.4"/>
<text stroke="none" font-family="'Droid Sans'" y="51.0999" class="text" font-size="3.49999" stroke-width="0" fill="#8c8c8c" x="70.2499" text-anchor="end">D10</text>
<g height="0.699999" stroke="none" y="50.0499" class="terminal" stroke-width="0" x="86.0499" fill="none" id="connector28terminal" width="0.699999"/>
<line stroke="#787878" x1="71.6499" class="pin" y2="57.6" stroke-width="0.699999" stroke-linecap="round" x2="86.0499" fill="none" id="connector27pin" y1="57.6"/>
<text stroke="none" font-family="'Droid Sans'" y="58.2999" class="text" font-size="3.49999" stroke-width="0" fill="#8c8c8c" x="70.2499" text-anchor="end">D9</text>
<g height="0.699999" stroke="none" y="57.2499" class="terminal" stroke-width="0" x="86.0499" fill="none" id="connector27terminal" width="0.699999"/>
<line stroke="#787878" x1="71.6499" class="pin" y2="64.8" stroke-width="0.699999" stroke-linecap="round" x2="86.0499" fill="none" id="connector26pin" y1="64.8"/>
<text stroke="none" font-family="'Droid Sans'" y="65.4999" class="text" font-size="3.49999" stroke-width="0" fill="#8c8c8c" x="70.2499" text-anchor="end">D8</text>
<g height="0.699999" stroke="none" y="64.4499" class="terminal" stroke-width="0" x="86.0499" fill="none" id="connector26terminal" width="0.699999"/>
<line stroke="#787878" x1="71.6499" class="pin" y2="72" stroke-width="0.699999" stroke-linecap="round" x2="86.0499" fill="none" id="connector25pin" y1="72"/>
<text stroke="none" font-family="'Droid Sans'" y="72.6999" class="text" font-size="3.49999" stroke-width="0" fill="#8c8c8c" x="70.2499" text-anchor="end">D7</text>
<g height="0.699999" stroke="none" y="71.6499" class="terminal" stroke-width="0" x="86.0499" fill="none" id="connector25terminal" width="0.699999"/>
<line stroke="#787878" x1="71.6499" class="pin" y2="79.2" stroke-width="0.699999" stroke-linecap="round" x2="86.0499" fill="none" id="connector24pin" y1="79.2"/>
<text stroke="none" font-family="'Droid Sans'" y="79.8999" class="text" font-size="3.49999" stroke-width="0" fill="#8c8c8c" x="70.2499" text-anchor="end">D6</text>
<g height="0.699999" stroke="none" y="78.8499" class="terminal" stroke-width="0" x="86.0499" fill="none" id="connector24terminal" width="0.699999"/>
<line stroke="#787878" x1="71.6499" class="pin" y2="86.4" stroke-width="0.699999" stroke-linecap="round" x2="86.0499" fill="none" id="connector23pin" y1="86.4"/>
<text stroke="none" font-family="'Droid Sans'" y="87.0999" class="text" font-size="3.49999" stroke-width="0" fill="#8c8c8c" x="70.2499" text-anchor="end">D5</text>
<g height="0.699999" stroke="none" y="86.0499" class="terminal" stroke-width="0" x="86.0499" fill="none" id="connector23terminal" width="0.699999"/>
<line stroke="#787878" x1="71.6499" class="pin" y2="93.6" stroke-width="0.699999" stroke-linecap="round" x2="86.0499" fill="none" id="connector22pin" y1="93.6"/>
<text stroke="none" font-family="'Droid Sans'" y="94.2999" class="text" font-size="3.49999" stroke-width="0" fill="#8c8c8c" x="70.2499" text-anchor="end">D4</text>
<g height="0.699999" stroke="none" y="93.2499" class="terminal" stroke-width="0" x="86.0499" fill="none" id="connector22terminal" width="0.699999"/>
<line stroke="#787878" x1="71.6499" class="pin" y2="100.8" stroke-width="0.699999" stroke-linecap="round" x2="86.0499" fill="none" id="connector21pin" y1="100.8"/>
<text stroke="none" font-family="'Droid Sans'" y="101.5" class="text" font-size="3.49999" stroke-width="0" fill="#8c8c8c" x="70.2499" text-anchor="end">D3</text>
<g height="0.699999" stroke="none" y="100.45" class="terminal" stroke-width="0" x="86.0499" fill="none" id="connector21terminal" width="0.699999"/>
<line stroke="#787878" x1="71.6499" class="pin" y2="108" stroke-width="0.699999" stroke-linecap="round" x2="86.0499" fill="none" id="connector20pin" y1="108"/>
<text stroke="none" font-family="'Droid Sans'" y="108.7" class="text" font-size="3.49999" stroke-width="0" fill="#8c8c8c" x="70.2499" text-anchor="end">D2</text>
<g height="0.699999" stroke="none" y="107.65" class="terminal" stroke-width="0" x="86.0499" fill="none" id="connector20terminal" width="0.699999"/>
<line stroke="#787878" x1="71.6499" class="pin" y2="122.4" stroke-width="0.699999" stroke-linecap="round" x2="86.0499" fill="none" id="connector16pin" y1="122.4"/>
<text stroke="none" font-family="'Droid Sans'" y="123.1" class="text" font-size="3.49999" stroke-width="0" fill="#8c8c8c" x="70.2499" text-anchor="end">D1/TX</text>
<g height="0.699999" stroke="none" y="122.05" class="terminal" stroke-width="0" x="86.0499" fill="none" id="connector16terminal" width="0.699999"/>
<line stroke="#787878" x1="71.6499" class="pin" y2="129.6" stroke-width="0.699999" stroke-linecap="round" x2="86.0499" fill="none" id="connector17pin" y1="129.6"/>
<text stroke="none" font-family="'Droid Sans'" y="130.3" class="text" font-size="3.49999" stroke-width="0" fill="#8c8c8c" x="70.2499" text-anchor="end">D0/RX</text>
<g height="0.699999" stroke="none" y="129.25" class="terminal" stroke-width="0" x="86.0499" fill="none" id="connector17terminal" width="0.699999"/>
<line stroke="none" x1="0.349999" class="pin" y2="28.8" stroke-width="0" stroke-linecap="round" x2="14.75" fill="none" id="connector33pin" y1="28.8"/>
<g height="0.699999" stroke="none" y="28.4499" class="terminal" stroke-width="0" x="-0.349999" fill="none" id="connector33terminal" width="0.699999"/>
<line stroke="none" x1="0.349999" class="pin" y2="28.8" stroke-width="0" stroke-linecap="round" x2="14.75" fill="none" id="connector18pin" y1="28.8"/>
<g height="0.699999" stroke="none" y="28.4499" class="terminal" stroke-width="0" x="-0.349999" fill="none" id="connector18terminal" width="0.699999"/>
<line stroke="#787878" x1="0.349999" class="pin" y2="28.8" stroke-width="0.699999" stroke-linecap="round" x2="14.75" fill="none" id="connector59pin" y1="28.8"/>
<text stroke="none" font-family="'Droid Sans'" y="29.4999" class="text" font-size="3.49999" stroke-width="0" fill="#8c8c8c" x="16.15" text-anchor="start">RESET</text>
<rect height="0.699999" stroke="none" y="28.4499" class="terminal" stroke-width="0" x="-0.349999" fill="none" id="connector59terminal" width="0.699999"/>
<line stroke="#787878" x1="0.349999" class="pin" y2="36" stroke-width="0.699999" stroke-linecap="round" x2="14.75" fill="none" id="connector43pin" y1="36"/>
<text stroke="none" font-family="'Droid Sans'" y="36.6999" class="text" font-size="3.49999" stroke-width="0" fill="#8c8c8c" x="16.15" text-anchor="start">AREF</text>
<g height="0.699999" stroke="none" y="35.6499" class="terminal" stroke-width="0" x="-0.349999" fill="none" id="connector43terminal" width="0.699999"/>
<line stroke="#787878" x1="0.349999" class="pin" y2="50.4" stroke-width="0.699999" stroke-linecap="round" x2="14.75" fill="none" id="connector42pin" y1="50.4"/>
<text stroke="none" font-family="'Droid Sans'" y="51.0999" class="text" font-size="3.49999" stroke-width="0" fill="#8c8c8c" x="16.15" text-anchor="start">A0</text>
<g height="0.699999" stroke="none" y="50.0499" class="terminal" stroke-width="0" x="-0.349999" fill="none" id="connector42terminal" width="0.699999"/>
<line stroke="#787878" x1="0.349999" class="pin" y2="57.6" stroke-width="0.699999" stroke-linecap="round" x2="14.75" fill="none" id="connector41pin" y1="57.6"/>
<text stroke="none" font-family="'Droid Sans'" y="58.2999" class="text" font-size="3.49999" stroke-width="0" fill="#8c8c8c" x="16.15" text-anchor="start">A1</text>
<g height="0.699999" stroke="none" y="57.2499" class="terminal" stroke-width="0" x="-0.349999" fill="none" id="connector41terminal" width="0.699999"/>
<line stroke="#787878" x1="0.349999" class="pin" y2="64.8" stroke-width="0.699999" stroke-linecap="round" x2="14.75" fill="none" id="connector40pin" y1="64.8"/>
<text stroke="none" font-family="'Droid Sans'" y="65.4999" class="text" font-size="3.49999" stroke-width="0" fill="#8c8c8c" x="16.15" text-anchor="start">A2</text>
<g height="0.699999" stroke="none" y="64.4499" class="terminal" stroke-width="0" x="-0.349999" fill="none" id="connector40terminal" width="0.699999"/>
<line stroke="#787878" x1="0.349999" class="pin" y2="72" stroke-width="0.699999" stroke-linecap="round" x2="14.75" fill="none" id="connector39pin" y1="72"/>
<text stroke="none" font-family="'Droid Sans'" y="72.6999" class="text" font-size="3.49999" stroke-width="0" fill="#8c8c8c" x="16.15" text-anchor="start">A3</text>
<g height="0.699999" stroke="none" y="71.6499" class="terminal" stroke-width="0" x="-0.349999" fill="none" id="connector39terminal" width="0.699999"/>
<line stroke="#787878" x1="0.349999" class="pin" y2="79.2" stroke-width="0.699999" stroke-linecap="round" x2="14.75" fill="none" id="connector38pin" y1="79.2"/>
<text stroke="none" font-family="'Droid Sans'" y="79.8999" class="text" font-size="3.49999" stroke-width="0" fill="#8c8c8c" x="16.15" text-anchor="start">A4</text>
<g height="0.699999" stroke="none" y="78.8499" class="terminal" stroke-width="0" x="-0.349999" fill="none" id="connector38terminal" width="0.699999"/>
<line stroke="#787878" x1="0.349999" class="pin" y2="86.4" stroke-width="0.699999" stroke-linecap="round" x2="14.75" fill="none" id="connector37pin" y1="86.4"/>
<text stroke="none" font-family="'Droid Sans'" y="87.0999" class="text" font-size="3.49999" stroke-width="0" fill="#8c8c8c" x="16.15" text-anchor="start">A5</text>
<g height="0.699999" stroke="none" y="86.0499" class="terminal" stroke-width="0" x="-0.349999" fill="none" id="connector37terminal" width="0.699999"/>
<line stroke="#787878" x1="0.349999" class="pin" y2="93.6" stroke-width="0.699999" stroke-linecap="round" x2="14.75" fill="none" id="connector36pin" y1="93.6"/>
<text stroke="none" font-family="'Droid Sans'" y="94.2999" class="text" font-size="3.49999" stroke-width="0" fill="#8c8c8c" x="16.15" text-anchor="start">A6</text>
<g height="0.699999" stroke="none" y="93.2499" class="terminal" stroke-width="0" x="-0.349999" fill="none" id="connector36terminal" width="0.699999"/>
<line stroke="#787878" x1="0.349999" class="pin" y2="100.8" stroke-width="0.699999" stroke-linecap="round" x2="14.75" fill="none" id="connector35pin" y1="100.8"/>
<text stroke="none" font-family="'Droid Sans'" y="101.5" class="text" font-size="3.49999" stroke-width="0" fill="#8c8c8c" x="16.15" text-anchor="start">A7</text>
<g height="0.699999" stroke="none" y="100.45" class="terminal" stroke-width="0" x="-0.349999" fill="none" id="connector35terminal" width="0.699999"/>
<line stroke="none" x1="43.2" class="pin" y2="158.05" stroke-width="0" stroke-linecap="round" x2="43.2" fill="none" id="connector19pin" y1="143.65"/>
<g height="0.699999" stroke="none" y="158.05" class="terminal" stroke-width="0" x="42.8499" fill="none" id="connector19terminal" width="0.699999"/>
<line stroke="none" x1="43.2" class="pin" y2="158.05" stroke-width="0" stroke-linecap="round" x2="43.2" fill="none" id="connector32pin" y1="143.65"/>
<g height="0.699999" stroke="none" y="158.05" class="terminal" stroke-width="0" x="42.8499" fill="none" id="connector32terminal" width="0.699999"/>
<line stroke="#787878" x1="43.2" class="pin" y2="158.05" stroke-width="0.699999" stroke-linecap="round" x2="43.2" fill="none" id="connector60pin" y1="143.65"/>
<g transform="matrix(1, 0, 0, 1, 43.8999, 142.25)">
<g>
<g transform="rotate(270)">
<g>
<text stroke="none" font-family="'Droid Sans'" y="0" class="text" font-size="3.49999" stroke-width="0" fill="#8c8c8c" x="0" text-anchor="start">GND</text>
</g>
</g>
</g>
</g>
<rect height="0.699999" stroke="none" y="158.05" class="terminal" stroke-width="0" x="42.8499" fill="none" id="connector60terminal" width="0.699999"/>
<line stroke="#787878" x1="28.8" class="pin" y2="14.75" stroke-width="0.699999" stroke-linecap="round" x2="28.8" fill="none" id="connector31pin" y1="0.349999"/>
<g transform="matrix(1, 0, 0, 1, 29.4999, 16.15)">
<g>
<g transform="rotate(270)">
<g>
<text stroke="none" font-family="'Droid Sans'" y="0" class="text" font-size="3.49999" stroke-width="0" fill="#8c8c8c" x="0" text-anchor="end">VIN</text>
</g>
</g>
</g>
</g>
<g height="0.699999" stroke="none" y="-0.349999" class="terminal" stroke-width="0" x="28.4499" fill="none" id="connector31terminal" width="0.699999"/>
<line stroke="none" x1="43.2" class="pin" y2="14.75" stroke-width="0" stroke-linecap="round" x2="43.2" fill="none" id="connector34pin" y1="0.349999"/>
<g height="0.699999" stroke="none" y="-0.349999" class="terminal" stroke-width="0" x="42.8499" fill="none" id="connector34terminal" width="0.699999"/>
<line stroke="#787878" x1="43.2" class="pin" y2="14.75" stroke-width="0.699999" stroke-linecap="round" x2="43.2" fill="none" id="connector56pin" y1="0.349999"/>
<g transform="matrix(1, 0, 0, 1, 43.8999, 16.15)">
<g>
<g transform="rotate(270)">
<g>
<text stroke="none" font-family="'Droid Sans'" y="0" class="text" font-size="3.49999" stroke-width="0" fill="#8c8c8c" x="0" text-anchor="end">5V</text>
</g>
</g>
</g>
</g>
<rect height="0.699999" stroke="none" y="-0.349999" class="terminal" stroke-width="0" x="42.8499" fill="none" id="connector56terminal" width="0.699999"/>
<line stroke="#787878" x1="57.6" class="pin" y2="14.75" stroke-width="0.699999" stroke-linecap="round" x2="57.6" fill="none" id="connector44pin" y1="0.349999"/>
<g transform="matrix(1, 0, 0, 1, 58.2999, 16.15)">
<g>
<g transform="rotate(270)">
<g>
<text stroke="none" font-family="'Droid Sans'" y="0" class="text" font-size="3.49999" stroke-width="0" fill="#8c8c8c" x="0" text-anchor="end">3V3</text>
</g>
</g>
</g>
</g>
<g height="0.699999" stroke="none" y="-0.349999" class="terminal" stroke-width="0" x="57.2499" fill="none" id="connector44terminal" width="0.699999"/>
<text stroke="none" font-family="'Droid Sans'" y="72.8498" class="text" font-size="4.25001" stroke-width="0" id="label" fill="#000000" x="43.6499" text-anchor="middle">Arduino</text>
<text stroke="none" font-family="'Droid Sans'" y="77.3833" class="text" font-size="4.25001" stroke-width="0" id="label" fill="#000000" x="43.6499" text-anchor="middle">Nano</text>
<text stroke="none" font-family="'Droid Sans'" y="81.9167" class="text" font-size="4.25001" stroke-width="0" id="label" fill="#000000" x="43.6499" text-anchor="middle">(Rev3.0)</text>
</g>
</g></g></g><g partID='854172440'><g transform='translate(97.2804,10.8622)' ><g gorn="0.4" id="schematic">
<line stroke="#000000" x1="19.266" y2="28.802" stroke-width="0.7" stroke-linecap="round" gorn="0.4.0" x2="15.667" fill="none" id="line5" y1="28.802"/>
<line stroke="#000000" x1="15.667" y2="28.802" stroke-width="0.7" stroke-linecap="round" gorn="0.4.1" x2="12.066" fill="none" id="line7" y1="28.802"/>
<polygon points="15.667,28.802,12.066,21.601,15.667,21.601,19.266,21.601" stroke="#000000" stroke-width="0.7" stroke-linecap="round" gorn="0.4.2" fill="#FFFFFF" id="polygon9"/>
<line stroke="#000000" x1="15.667" y2="28.802" stroke-width="0.45" stroke-linecap="round" gorn="0.4.3" x2="15.667" fill="none" id="line11" y1="21.601"/>
<polyline points="7.36,36,15.667,36,15.667,28.802" stroke="#000000" stroke-width="0.7" stroke-linecap="round" gorn="0.4.4" fill="none" id="connector1pin_1_"/>
<polyline points="7.36,14.4,15.667,14.4,15.667,21.601" stroke="#000000" stroke-width="0.7" stroke-linecap="round" gorn="0.4.5" fill="none" id="connector0pin_1_"/>
<rect height="1.2" y="35.4" gorn="0.4.6" fill="none" x="50.399" id="rect15" width="7.2"/>
<g height="1.229" y="13.786" gorn="0.4.7" fill="none" x="0" id="connector0terminal" width="0.611"/>
<g height="1.227" y="35.388" gorn="0.4.8" fill="none" x="0" id="connector1terminal" width="0.611"/>
<g height="1.2" y="35.4" gorn="0.4.9" fill="none" x="57" id="connector5terminal" width="0.6"/>
<g height="1.2" y="13.8" gorn="0.4.10" fill="none" x="57" id="connector3terminal" width="0.6"/>
<line stroke-linejoin="round" stroke="#787878" x1="0" y2="36" stroke-width="0.7" stroke-linecap="round" gorn="0.4.11" x2="7.2" fill="none" id="connector1pin" y1="36"/>
<line stroke-linejoin="round" stroke="#787878" x1="0" y2="14.4" stroke-width="0.7" stroke-linecap="round" gorn="0.4.12" x2="7.2" fill="none" id="connector0pin" y1="14.4"/>
<g transform="matrix(1, 0, 0, 1, 2.7751, 12.7263)">
<g>
<g>
<g>
<text font-family="DroidSans" font-size="2" gorn="0.4.13.0.0.0" fill="#787878" id="text23">1</text>
</g>
</g>
</g>
</g>
<g transform="matrix(1, 0, 0, 1, 2.7751, 34.6501)">
<g>
<g>
<g>
<text font-family="DroidSans" font-size="2" gorn="0.4.14.0.0.0" fill="#787878" id="text25">2</text>
</g>
</g>
</g>
</g>
<line stroke="#000000" x1="38.625" y2="30.331" stroke-width="0.7" stroke-linecap="round" gorn="0.4.15" x2="38.625" fill="none" id="line27" y1="19.531"/>
<polyline points="38.625,25.777,45.125,29.866,45.125,36,50.239,36" stroke="#000000" stroke-width="0.7" stroke-linecap="round" gorn="0.4.16" fill="none" id="connector1pin_4_"/>
<polyline points="50.239,14.4,45.125,14.4,45.125,19.531,38.625,23.421" stroke="#000000" stroke-width="0.7" stroke-linecap="round" gorn="0.4.17" fill="none" id="connector1pin_2_"/>
<line stroke-linejoin="round" stroke="#787878" x1="50.399" y2="36" stroke-width="0.7" stroke-linecap="round" gorn="0.4.18" x2="57.6" fill="none" id="connector5pin" y1="36"/>
<line stroke-linejoin="round" stroke="#787878" x1="50.399" y2="14.4" stroke-width="0.7" stroke-linecap="round" gorn="0.4.19" x2="57.6" fill="none" id="connector3pin" y1="14.4"/>
<g transform="matrix(1, 0, 0, 1, 53.1418, 12.7263)">
<g>
<g>
<g>
<text font-family="DroidSans" font-size="2" gorn="0.4.20.0.0.0" fill="#787878" id="text33">4</text>
</g>
</g>
</g>
</g>
<g transform="matrix(1, 0, 0, 1, 53.1418, 34.6501)">
<g>
<g>
<g>
<text font-family="DroidSans" font-size="2" gorn="0.4.21.0.0.0" fill="#787878" id="text35">3</text>
</g>
</g>
</g>
</g>
<line stroke="#000000" x1="23.767" y2="23.76" stroke-width="0.45" stroke-linecap="round" gorn="0.4.22" x2="21.427" fill="none" id="line39" y1="26.101"/>
<line stroke="#000000" x1="23.406" y2="27.001" stroke-width="0.45" stroke-linecap="round" gorn="0.4.23" x2="21.066" fill="none" id="line41" y1="29.341"/>
<path d="M22.866,26.637l1.438,-1.438l1.08,2.521L22.866,26.637z" gorn="0.4.24" id="path43"/>
<path d="M22.509,29.878l1.438,-1.438l1.08,2.521L22.509,29.878z" gorn="0.4.25" id="path45"/>
<path d="M41.498,28.738l1.111,-1.704l1.577,2.243L41.498,28.738z" gorn="0.4.26" id="path47"/>
</g>
</g></g><g partID='854174450'><g transform='translate(157.676,147.312)' ><g transform='matrix(0,1,-1,0,0,0)'  ><g xmlns="http://www.w3.org/2000/svg" id="schematic">
<line stroke="#000000" x1="7.55002" class="other" y2="0.216" stroke-width="0.432002" stroke-linecap="round" xmlns="http://www.w3.org/2000/svg" x2="8.63003" y1="3.096"/>
<line stroke="#000000" x1="8.63003" class="other" y2="5.976" stroke-width="0.432002" stroke-linecap="round" xmlns="http://www.w3.org/2000/svg" x2="10.43" y1="0.216"/>
<line stroke="#000000" x1="10.43" class="other" y2="0.216" stroke-width="0.432002" stroke-linecap="round" xmlns="http://www.w3.org/2000/svg" x2="12.23" y1="5.976"/>
<line stroke="#000000" x1="12.23" class="other" y2="5.976" stroke-width="0.432002" stroke-linecap="round" xmlns="http://www.w3.org/2000/svg" x2="14.03" y1="0.216"/>
<line stroke="#000000" x1="14.03" class="other" y2="0.216" stroke-width="0.432002" stroke-linecap="round" xmlns="http://www.w3.org/2000/svg" x2="15.8301" y1="5.976"/>
<line stroke="#000000" x1="15.8301" class="other" y2="5.976" stroke-width="0.432002" stroke-linecap="round" xmlns="http://www.w3.org/2000/svg" x2="17.6301" y1="0.216"/>
<line stroke="#000000" x1="17.6301" class="other" y2="0.216" stroke-width="0.432002" stroke-linecap="round" xmlns="http://www.w3.org/2000/svg" x2="19.4301" y1="5.976"/>
<line stroke="#000000" x1="19.4301" class="other" y2="5.976" stroke-width="0.432002" stroke-linecap="round" xmlns="http://www.w3.org/2000/svg" x2="21.2301" y1="0.216"/>
<line stroke="#000000" x1="21.2301" class="other" y2="3.096" stroke-width="0.432002" stroke-linecap="round" xmlns="http://www.w3.org/2000/svg" x2="21.9501" y1="5.976"/>
<line stroke="#787878" x1="29.1502" class="pin" y2="3.096" connectorname="2" stroke-width="0.700001" stroke-linecap="round" xmlns="http://www.w3.org/2000/svg" x2="21.9501" id="connector1pin" y1="3.096"/>
<g height="0.000283465" stroke="none" y="3.096" class="terminal" stroke-width="0" xmlns="http://www.w3.org/2000/svg" id="connector1terminal" x="29.1502" fill="none" width="0.000283466"/>
<text stroke="none" font-family="'Droid Sans'" y="2.046" class="text" font-size="2.50001" stroke-width="0" xmlns="http://www.w3.org/2000/svg" fill="#8c8c8c" x="25.5501" text-anchor="middle">2</text>
<line stroke="#787878" x1="0.350001" class="pin" y2="3.096" connectorname="1" stroke-width="0.700001" stroke-linecap="round" xmlns="http://www.w3.org/2000/svg" x2="7.55002" id="connector0pin" y1="3.096"/>
<g height="0.000283465" stroke="none" y="3.096" class="terminal" stroke-width="0" xmlns="http://www.w3.org/2000/svg" id="connector0terminal" x="0.350001" fill="none" width="0.000283466"/>
<text stroke="none" font-family="'Droid Sans'" y="2.046" class="text" font-size="2.50001" stroke-width="0" xmlns="http://www.w3.org/2000/svg" fill="#8c8c8c" x="3.95001" text-anchor="middle">1</text>
</g>
</g></g></g><g partID='854174070'><g transform='translate(219.03,187.766)' ><g xmlns="http://www.w3.org/2000/svg" id="schematic">
<line stroke="#000000" x1="7.55002" class="other" y2="0.216" stroke-width="0.432002" stroke-linecap="round" xmlns="http://www.w3.org/2000/svg" x2="8.63003" y1="3.096"/>
<line stroke="#000000" x1="8.63003" class="other" y2="5.976" stroke-width="0.432002" stroke-linecap="round" xmlns="http://www.w3.org/2000/svg" x2="10.43" y1="0.216"/>
<line stroke="#000000" x1="10.43" class="other" y2="0.216" stroke-width="0.432002" stroke-linecap="round" xmlns="http://www.w3.org/2000/svg" x2="12.23" y1="5.976"/>
<line stroke="#000000" x1="12.23" class="other" y2="5.976" stroke-width="0.432002" stroke-linecap="round" xmlns="http://www.w3.org/2000/svg" x2="14.03" y1="0.216"/>
<line stroke="#000000" x1="14.03" class="other" y2="0.216" stroke-width="0.432002" stroke-linecap="round" xmlns="http://www.w3.org/2000/svg" x2="15.8301" y1="5.976"/>
<line stroke="#000000" x1="15.8301" class="other" y2="5.976" stroke-width="0.432002" stroke-linecap="round" xmlns="http://www.w3.org/2000/svg" x2="17.6301" y1="0.216"/>
<line stroke="#000000" x1="17.6301" class="other" y2="0.216" stroke-width="0.432002" stroke-linecap="round" xmlns="http://www.w3.org/2000/svg" x2="19.4301" y1="5.976"/>
<line stroke="#000000" x1="19.4301" class="other" y2="5.976" stroke-width="0.432002" stroke-linecap="round" xmlns="http://www.w3.org/2000/svg" x2="21.2301" y1="0.216"/>
<line stroke="#000000" x1="21.2301" class="other" y2="3.096" stroke-width="0.432002" stroke-linecap="round" xmlns="http://www.w3.org/2000/svg" x2="21.9501" y1="5.976"/>
<line stroke="#787878" x1="29.1502" class="pin" y2="3.096" connectorname="2" stroke-width="0.700001" stroke-linecap="round" xmlns="http://www.w3.org/2000/svg" x2="21.9501" id="connector1pin" y1="3.096"/>
<g height="0.000283465" stroke="none" y="3.096" class="terminal" stroke-width="0" xmlns="http://www.w3.org/2000/svg" id="connector1terminal" x="29.1502" fill="none" width="0.000283466"/>
<text stroke="none" font-family="'Droid Sans'" y="2.046" class="text" font-size="2.50001" stroke-width="0" xmlns="http://www.w3.org/2000/svg" fill="#8c8c8c" x="25.5501" text-anchor="middle">2</text>
<line stroke="#787878" x1="0.350001" class="pin" y2="3.096" connectorname="1" stroke-width="0.700001" stroke-linecap="round" xmlns="http://www.w3.org/2000/svg" x2="7.55002" id="connector0pin" y1="3.096"/>
<g height="0.000283465" stroke="none" y="3.096" class="terminal" stroke-width="0" xmlns="http://www.w3.org/2000/svg" id="connector0terminal" x="0.350001" fill="none" width="0.000283466"/>
<text stroke="none" font-family="'Droid Sans'" y="2.046" class="text" font-size="2.50001" stroke-width="0" xmlns="http://www.w3.org/2000/svg" fill="#8c8c8c" x="3.95001" text-anchor="middle">1</text>
</g>
</g></g><g partID='854172850'><g transform='translate(175.83,22.1661)' ><g xmlns="http://www.w3.org/2000/svg" id="schematic">
<line stroke="#000000" x1="7.55002" class="other" y2="0.216" stroke-width="0.432002" stroke-linecap="round" xmlns="http://www.w3.org/2000/svg" x2="8.63003" y1="3.096"/>
<line stroke="#000000" x1="8.63003" class="other" y2="5.976" stroke-width="0.432002" stroke-linecap="round" xmlns="http://www.w3.org/2000/svg" x2="10.43" y1="0.216"/>
<line stroke="#000000" x1="10.43" class="other" y2="0.216" stroke-width="0.432002" stroke-linecap="round" xmlns="http://www.w3.org/2000/svg" x2="12.23" y1="5.976"/>
<line stroke="#000000" x1="12.23" class="other" y2="5.976" stroke-width="0.432002" stroke-linecap="round" xmlns="http://www.w3.org/2000/svg" x2="14.03" y1="0.216"/>
<line stroke="#000000" x1="14.03" class="other" y2="0.216" stroke-width="0.432002" stroke-linecap="round" xmlns="http://www.w3.org/2000/svg" x2="15.8301" y1="5.976"/>
<line stroke="#000000" x1="15.8301" class="other" y2="5.976" stroke-width="0.432002" stroke-linecap="round" xmlns="http://www.w3.org/2000/svg" x2="17.6301" y1="0.216"/>
<line stroke="#000000" x1="17.6301" class="other" y2="0.216" stroke-width="0.432002" stroke-linecap="round" xmlns="http://www.w3.org/2000/svg" x2="19.4301" y1="5.976"/>
<line stroke="#000000" x1="19.4301" class="other" y2="5.976" stroke-width="0.432002" stroke-linecap="round" xmlns="http://www.w3.org/2000/svg" x2="21.2301" y1="0.216"/>
<line stroke="#000000" x1="21.2301" class="other" y2="3.096" stroke-width="0.432002" stroke-linecap="round" xmlns="http://www.w3.org/2000/svg" x2="21.9501" y1="5.976"/>
<line stroke="#787878" x1="29.1502" class="pin" y2="3.096" connectorname="2" stroke-width="0.700001" stroke-linecap="round" xmlns="http://www.w3.org/2000/svg" x2="21.9501" id="connector1pin" y1="3.096"/>
<g height="0.000283465" stroke="none" y="3.096" class="terminal" stroke-width="0" xmlns="http://www.w3.org/2000/svg" id="connector1terminal" x="29.1502" fill="none" width="0.000283466"/>
<text stroke="none" font-family="'Droid Sans'" y="2.046" class="text" font-size="2.50001" stroke-width="0" xmlns="http://www.w3.org/2000/svg" fill="#8c8c8c" x="25.5501" text-anchor="middle">2</text>
<line stroke="#787878" x1="0.350001" class="pin" y2="3.096" connectorname="1" stroke-width="0.700001" stroke-linecap="round" xmlns="http://www.w3.org/2000/svg" x2="7.55002" id="connector0pin" y1="3.096"/>
<g height="0.000283465" stroke="none" y="3.096" class="terminal" stroke-width="0" xmlns="http://www.w3.org/2000/svg" id="connector0terminal" x="0.350001" fill="none" width="0.000283466"/>
<text stroke="none" font-family="'Droid Sans'" y="2.046" class="text" font-size="2.50001" stroke-width="0" xmlns="http://www.w3.org/2000/svg" fill="#8c8c8c" x="3.95001" text-anchor="middle">1</text>
</g>
</g></g><g partID='854172470'><g transform='translate(46.23,22.1661)' ><g xmlns="http://www.w3.org/2000/svg" id="schematic">
<line stroke="#000000" x1="7.55002" class="other" y2="0.216" stroke-width="0.432002" stroke-linecap="round" xmlns="http://www.w3.org/2000/svg" x2="8.63003" y1="3.096"/>
<line stroke="#000000" x1="8.63003" class="other" y2="5.976" stroke-width="0.432002" stroke-linecap="round" xmlns="http://www.w3.org/2000/svg" x2="10.43" y1="0.216"/>
<line stroke="#000000" x1="10.43" class="other" y2="0.216" stroke-width="0.432002" stroke-linecap="round" xmlns="http://www.w3.org/2000/svg" x2="12.23" y1="5.976"/>
<line stroke="#000000" x1="12.23" class="other" y2="5.976" stroke-width="0.432002" stroke-linecap="round" xmlns="http://www.w3.org/2000/svg" x2="14.03" y1="0.216"/>
<line stroke="#000000" x1="14.03" class="other" y2="0.216" stroke-width="0.432002" stroke-linecap="round" xmlns="http://www.w3.org/2000/svg" x2="15.8301" y1="5.976"/>
<line stroke="#000000" x1="15.8301" class="other" y2="5.976" stroke-width="0.432002" stroke-linecap="round" xmlns="http://www.w3.org/2000/svg" x2="17.6301" y1="0.216"/>
<line stroke="#000000" x1="17.6301" class="other" y2="0.216" stroke-width="0.432002" stroke-linecap="round" xmlns="http://www.w3.org/2000/svg" x2="19.4301" y1="5.976"/>
<line stroke="#000000" x1="19.4301" class="other" y2="5.976" stroke-width="0.432002" stroke-linecap="round" xmlns="http://www.w3.org/2000/svg" x2="21.2301" y1="0.216"/>
<line stroke="#000000" x1="21.2301" class="other" y2="3.096" stroke-width="0.432002" stroke-linecap="round" xmlns="http://www.w3.org/2000/svg" x2="21.9501" y1="5.976"/>
<line stroke="#787878" x1="29.1502" class="pin" y2="3.096" connectorname="2" stroke-width="0.700001" stroke-linecap="round" xmlns="http://www.w3.org/2000/svg" x2="21.9501" id="connector1pin" y1="3.096"/>
<g height="0.000283465" stroke="none" y="3.096" class="terminal" stroke-width="0" xmlns="http://www.w3.org/2000/svg" id="connector1terminal" x="29.1502" fill="none" width="0.000283466"/>
<text stroke="none" font-family="'Droid Sans'" y="2.046" class="text" font-size="2.50001" stroke-width="0" xmlns="http://www.w3.org/2000/svg" fill="#8c8c8c" x="25.5501" text-anchor="middle">2</text>
<line stroke="#787878" x1="0.350001" class="pin" y2="3.096" connectorname="1" stroke-width="0.700001" stroke-linecap="round" xmlns="http://www.w3.org/2000/svg" x2="7.55002" id="connector0pin" y1="3.096"/>
<g height="0.000283465" stroke="none" y="3.096" class="terminal" stroke-width="0" xmlns="http://www.w3.org/2000/svg" id="connector0terminal" x="0.350001" fill="none" width="0.000283466"/>
<text stroke="none" font-family="'Droid Sans'" y="2.046" class="text" font-size="2.50001" stroke-width="0" xmlns="http://www.w3.org/2000/svg" fill="#8c8c8c" x="3.95001" text-anchor="middle">1</text>
</g>
</g></g><g partID='854173630'><g transform='translate(209.48,104.246)' ><g id="schematic">
<g>
<path d="M13.5,14.966L9.9,14.966c-0.193,0,-0.35,-0.156,-0.35,-0.35s0.156,-0.35,0.35,-0.35L13.5,14.266c0.193,0,0.35,0.156,0.35,0.35S13.694,14.966,13.5,14.966z"/>
</g>
<g>
<path d="M9.9,14.966L6.3,14.966c-0.193,0,-0.35,-0.156,-0.35,-0.35s0.157,-0.35,0.35,-0.35l3.6,0c0.193,0,0.35,0.156,0.35,0.35S10.093,14.966,9.9,14.966z"/>
</g>
<g>
<polygon points="9.9,14.616,6.3,7.416,9.9,7.416,13.5,7.416" fill="#FFFFFF"/>
<path d="M9.9,15.398L5.734,7.066l8.333,0L9.9,15.398zM6.866,7.766L9.9,13.834l3.034,-6.068L6.866,7.766z"/>
</g>
<g>
<path d="M9.9,14.841c-0.124,0,-0.225,-0.101,-0.225,-0.225l0,-7.2c0,-0.124,0.101,-0.225,0.225,-0.225s0.225,0.101,0.225,0.225l0,7.2C10.124,14.74,10.024,14.841,9.9,14.841z"/>
</g>
<g>
<path d="M1.8,12.141c-0.058,0,-0.115,-0.021,-0.159,-0.065c-0.088,-0.088,-0.088,-0.23,0,-0.318l2.34,-2.341c0.088,-0.088,0.23,-0.088,0.318,0s0.088,0.23,0,0.318l-2.34,2.341C1.915,12.12,1.858,12.141,1.8,12.141z"/>
</g>
<g>
<path d="M2.16,15.381c-0.058,0,-0.115,-0.021,-0.159,-0.065c-0.088,-0.088,-0.088,-0.23,0,-0.318l2.34,-2.34c0.088,-0.088,0.23,-0.088,0.318,0s0.088,0.23,0,0.318l-2.34,2.34C2.276,15.359,2.218,15.381,2.16,15.381z"/>
</g>
<g id="connector0pin">
<path d="M9.9,22.166c-0.193,0,-0.35,-0.156,-0.35,-0.35l0,-7.2c0,-0.193,0.156,-0.35,0.35,-0.35s0.35,0.156,0.35,0.35l0,7.2C10.249,22.01,10.093,22.166,9.9,22.166z" fill="#787878"/>
</g>
<g id="connector0terminal">
<rect height="0.001" y="21.816" x="9.9" fill="none" width="0.001"/>
</g>
<g transform="matrix(1, 0, 0, 1, 3.429, 6.4262)">
<g>
<g transform="rotate(270)">
<g>
<g enable-background="new    ">
<path d="M-11.647,5.54l-0.891,0L-12.538,5.388l0.342,-0.372c0.049,-0.053,0.093,-0.101,0.131,-0.145s0.071,-0.086,0.099,-0.128c0.026,-0.042,0.047,-0.084,0.062,-0.125c0.015,-0.043,0.021,-0.088,0.021,-0.138c0,-0.038,-0.005,-0.072,-0.017,-0.102s-0.027,-0.054,-0.047,-0.075c-0.021,-0.02,-0.045,-0.035,-0.073,-0.046s-0.06,-0.016,-0.094,-0.016c-0.062,0,-0.118,0.013,-0.167,0.038c-0.051,0.024,-0.098,0.057,-0.143,0.096l-0.1,-0.116c0.025,-0.023,0.055,-0.046,0.084,-0.065c0.029,-0.021,0.063,-0.039,0.097,-0.054s0.071,-0.026,0.109,-0.036c0.038,-0.008,0.079,-0.013,0.121,-0.013c0.063,0,0.119,0.009,0.169,0.026c0.051,0.018,0.094,0.043,0.129,0.076c0.035,0.032,0.063,0.072,0.082,0.119c0.019,0.048,0.028,0.101,0.028,0.16c0,0.056,-0.009,0.108,-0.026,0.158c-0.017,0.05,-0.041,0.1,-0.07,0.148c-0.031,0.048,-0.066,0.097,-0.109,0.146c-0.041,0.049,-0.087,0.1,-0.136,0.152L-12.32,5.37l0,0.008l0.673,0L-11.647,5.54z" fill="#787878"/>
</g>
</g>
</g>
</g>
</g>
<g id="connector1pin">
<path d="M9.9,7.766c-0.193,0,-0.35,-0.157,-0.35,-0.35l0,-7.2c0,-0.193,0.156,-0.35,0.35,-0.35s0.35,0.157,0.35,0.35l0,7.2C10.249,7.609,10.093,7.766,9.9,7.766z" fill="#787878"/>
</g>
<g id="connector1terminal">
<polygon points="9.9,0.216,9.901,0.216,9.901,0.216" fill="none"/>
</g>
<g transform="matrix(1, 0, 0, 1, 3.429, 1.3462)">
<g>
<g transform="rotate(270)">
<g>
<g enable-background="new    ">
<path d="M-2.616,5.54l-0.172,0L-2.788,4.648c0,-0.028,0,-0.058,0,-0.09s0.001,-0.063,0.002,-0.095c0.001,-0.032,0.002,-0.063,0.003,-0.092c0.001,-0.028,0.002,-0.054,0.002,-0.076c-0.011,0.012,-0.021,0.021,-0.029,0.03s-0.017,0.017,-0.026,0.024s-0.018,0.016,-0.028,0.025c-0.01,0.008,-0.021,0.019,-0.035,0.03l-0.145,0.118l-0.094,-0.12l0.374,-0.292l0.146,0L-2.618,5.54z" fill="#787878"/>
</g>
</g>
</g>
</g>
</g>
<g>
<path d="M0.18,13.536l1.08,-2.521l1.44,1.438L0.18,13.536z"/>
</g>
<g>
<path d="M0.54,16.776l1.08,-2.521l1.438,1.438L0.54,16.776z"/>
</g>
</g>
</g></g><g partID='854173600'><g transform='translate(187.88,104.246)' ><g id="schematic">
<g>
<path d="M13.5,14.966L9.9,14.966c-0.193,0,-0.35,-0.156,-0.35,-0.35s0.156,-0.35,0.35,-0.35L13.5,14.266c0.193,0,0.35,0.156,0.35,0.35S13.694,14.966,13.5,14.966z"/>
</g>
<g>
<path d="M9.9,14.966L6.3,14.966c-0.193,0,-0.35,-0.156,-0.35,-0.35s0.157,-0.35,0.35,-0.35l3.6,0c0.193,0,0.35,0.156,0.35,0.35S10.093,14.966,9.9,14.966z"/>
</g>
<g>
<polygon points="9.9,14.616,6.3,7.416,9.9,7.416,13.5,7.416" fill="#FFFFFF"/>
<path d="M9.9,15.398L5.734,7.066l8.333,0L9.9,15.398zM6.866,7.766L9.9,13.834l3.034,-6.068L6.866,7.766z"/>
</g>
<g>
<path d="M9.9,14.841c-0.124,0,-0.225,-0.101,-0.225,-0.225l0,-7.2c0,-0.124,0.101,-0.225,0.225,-0.225s0.225,0.101,0.225,0.225l0,7.2C10.124,14.74,10.024,14.841,9.9,14.841z"/>
</g>
<g>
<path d="M1.8,12.141c-0.058,0,-0.115,-0.021,-0.159,-0.065c-0.088,-0.088,-0.088,-0.23,0,-0.318l2.34,-2.341c0.088,-0.088,0.23,-0.088,0.318,0s0.088,0.23,0,0.318l-2.34,2.341C1.915,12.12,1.858,12.141,1.8,12.141z"/>
</g>
<g>
<path d="M2.16,15.381c-0.058,0,-0.115,-0.021,-0.159,-0.065c-0.088,-0.088,-0.088,-0.23,0,-0.318l2.34,-2.34c0.088,-0.088,0.23,-0.088,0.318,0s0.088,0.23,0,0.318l-2.34,2.34C2.276,15.359,2.218,15.381,2.16,15.381z"/>
</g>
<g id="connector0pin">
<path d="M9.9,22.166c-0.193,0,-0.35,-0.156,-0.35,-0.35l0,-7.2c0,-0.193,0.156,-0.35,0.35,-0.35s0.35,0.156,0.35,0.35l0,7.2C10.249,22.01,10.093,22.166,9.9,22.166z" fill="#787878"/>
</g>
<g id="connector0terminal">
<rect height="0.001" y="21.816" x="9.9" fill="none" width="0.001"/>
</g>
<g transform="matrix(1, 0, 0, 1, 3.429, 6.4262)">
<g>
<g transform="rotate(270)">
<g>
<g enable-background="new    ">
<path d="M-11.647,5.54l-0.891,0L-12.538,5.388l0.342,-0.372c0.049,-0.053,0.093,-0.101,0.131,-0.145s0.071,-0.086,0.099,-0.128c0.026,-0.042,0.047,-0.084,0.062,-0.125c0.015,-0.043,0.021,-0.088,0.021,-0.138c0,-0.038,-0.005,-0.072,-0.017,-0.102s-0.027,-0.054,-0.047,-0.075c-0.021,-0.02,-0.045,-0.035,-0.073,-0.046s-0.06,-0.016,-0.094,-0.016c-0.062,0,-0.118,0.013,-0.167,0.038c-0.051,0.024,-0.098,0.057,-0.143,0.096l-0.1,-0.116c0.025,-0.023,0.055,-0.046,0.084,-0.065c0.029,-0.021,0.063,-0.039,0.097,-0.054s0.071,-0.026,0.109,-0.036c0.038,-0.008,0.079,-0.013,0.121,-0.013c0.063,0,0.119,0.009,0.169,0.026c0.051,0.018,0.094,0.043,0.129,0.076c0.035,0.032,0.063,0.072,0.082,0.119c0.019,0.048,0.028,0.101,0.028,0.16c0,0.056,-0.009,0.108,-0.026,0.158c-0.017,0.05,-0.041,0.1,-0.07,0.148c-0.031,0.048,-0.066,0.097,-0.109,0.146c-0.041,0.049,-0.087,0.1,-0.136,0.152L-12.32,5.37l0,0.008l0.673,0L-11.647,5.54z" fill="#787878"/>
</g>
</g>
</g>
</g>
</g>
<g id="connector1pin">
<path d="M9.9,7.766c-0.193,0,-0.35,-0.157,-0.35,-0.35l0,-7.2c0,-0.193,0.156,-0.35,0.35,-0.35s0.35,0.157,0.35,0.35l0,7.2C10.249,7.609,10.093,7.766,9.9,7.766z" fill="#787878"/>
</g>
<g id="connector1terminal">
<polygon points="9.9,0.216,9.901,0.216,9.901,0.216" fill="none"/>
</g>
<g transform="matrix(1, 0, 0, 1, 3.429, 1.3462)">
<g>
<g transform="rotate(270)">
<g>
<g enable-background="new    ">
<path d="M-2.616,5.54l-0.172,0L-2.788,4.648c0,-0.028,0,-0.058,0,-0.09s0.001,-0.063,0.002,-0.095c0.001,-0.032,0.002,-0.063,0.003,-0.092c0.001,-0.028,0.002,-0.054,0.002,-0.076c-0.011,0.012,-0.021,0.021,-0.029,0.03s-0.017,0.017,-0.026,0.024s-0.018,0.016,-0.028,0.025c-0.01,0.008,-0.021,0.019,-0.035,0.03l-0.145,0.118l-0.094,-0.12l0.374,-0.292l0.146,0L-2.618,5.54z" fill="#787878"/>
</g>
</g>
</g>
</g>
</g>
<g>
<path d="M0.18,13.536l1.08,-2.521l1.44,1.438L0.18,13.536z"/>
</g>
<g>
<path d="M0.54,16.776l1.08,-2.521l1.438,1.438L0.54,16.776z"/>
</g>
</g>
</g></g><g partID='854172500'><line stroke-linecap='round' stroke='#fff800' x1='46.5802' y1='25.2622' x2='30.9054' y2='25.2622' stroke-width='0.699998' /></g><g partID='854172570'><line stroke-linecap='round' stroke='#fff800' x1='97.5859' y1='25.2627' x2='75.3804' y2='25.2622' stroke-width='0.699998' /></g><g partID='854172640'><line stroke-linecap='round' stroke='#a37911' x1='30.9054' y1='32.3212' x2='53.6573' y2='32.5853' stroke-width='0.699998' /></g><g partID='854172780'><line stroke-linecap='round' stroke='#a37911' x1='53.6026' y1='46.8622' x2='97.5859' y2='46.8637' stroke-width='0.699998' /></g><g partID='854172710'><line stroke-linecap='round' stroke='#a37911' x1='53.6573' y1='32.5853' x2='53.6026' y2='46.8622' stroke-width='0.699998' /></g><g partID='854172870'><line stroke-linecap='round' stroke='#cc1414' x1='176.18' y1='25.2622' x2='154.58' y2='25.2622' stroke-width='0.699998' /></g><g partID='854173010'><line stroke-linecap='round' stroke='#cc1414' x1='313.158' y1='25.1733' x2='204.98' y2='25.2622' stroke-width='0.699998' /></g><g partID='854172940'><line stroke-linecap='round' stroke='#cc1414' x1='312.98' y1='32.4623' x2='313.158' y2='25.1733' stroke-width='0.699998' /></g><g partID='854173150'><line stroke-linecap='round' stroke='#25cc35' x1='154.58' y1='140.373' x2='269.78' y2='140.462' stroke-width='0.699998' /></g><circle  fill="black" cx="154.58" cy="140.373" r="1.44" stroke-width="0" stroke="none" /><g partID='854173080'><line stroke-linecap='round' stroke='#25cc35' x1='154.58' y1='46.8622' x2='154.58' y2='140.373' stroke-width='0.699998' /></g><g partID='854174470'><line stroke-linecap='round' stroke='#ff7300' x1='197.958' y1='97.3511' x2='248.091' y2='97.3511' stroke-width='0.699998' /></g><g partID='854173790'><line stroke-linecap='round' stroke='#ff7300' x1='248.091' y1='133.262' x2='269.78' y2='133.262' stroke-width='0.699998' /></g><g partID='854173720'><line stroke-linecap='round' stroke='#ff7300' x1='248.091' y1='97.3511' x2='248.091' y2='133.262' stroke-width='0.699998' /></g><g partID='854173650'><line stroke-linecap='round' stroke='#ff7300' x1='197.78' y1='104.462' x2='197.958' y2='97.3511' stroke-width='0.699998' /></g><g partID='854174000'><line stroke-linecap='round' stroke='#8c3b00' x1='255.558' y1='126.151' x2='269.78' y2='126.062' stroke-width='0.699998' /></g><g partID='854173930'><line stroke-linecap='round' stroke='#8c3b00' x1='255.558' y1='104.462' x2='255.558' y2='126.151' stroke-width='0.699998' /></g><g partID='854173860'><line stroke-linecap='round' stroke='#8c3b00' x1='219.38' y1='104.462' x2='255.558' y2='104.462' stroke-width='0.699998' /></g><g partID='854174090'><line stroke-linecap='round' stroke='#404040' x1='248.18' y1='190.862' x2='312.98' y2='190.862' stroke-width='0.699998' /></g><g partID='854174160'><line stroke-linecap='round' stroke='#404040' x1='219.38' y1='190.862' x2='219.38' y2='126.063' stroke-width='0.699998' /></g><circle  fill="black" cx="219.38" cy="190.862" r="1.44" stroke-width="0" stroke="none" /><g partID='854174230'><line stroke-linecap='round' stroke='#404040' x1='219.38' y1='190.862' x2='198.314' y2='190.862' stroke-width='0.699998' /></g><circle  fill="black" cx="219.38" cy="190.862" r="1.44" stroke-width="0" stroke="none" /><g partID='854174340'><line stroke-linecap='round' stroke='#404040' x1='198.314' y1='190.862' x2='197.78' y2='126.063' stroke-width='0.699998' /></g><circle  fill="black" cx="198.314" cy="190.862" r="1.44" stroke-width="0" stroke="none" /><g partID='854174540'><line stroke-linecap='round' stroke='#25cc35' x1='154.58' y1='140.373' x2='154.58' y2='147.662' stroke-width='0.699998' /></g><g partID='854174650'><line stroke-linecap='round' stroke='#404040' x1='198.314' y1='190.862' x2='154.58' y2='190.862' stroke-width='0.699998' /></g><g partID='854174800'><line stroke-linecap='round' stroke='#404040' x1='154.58' y1='190.862' x2='154.58' y2='176.462' stroke-width='0.699998' /></g><g partID='854171930' id='partLabel'><g transform='translate(0,5.97072)' ><g font-size='5' font-style='normal' font-weight='normal' fill='#000000' font-family="'DroidSans'" id='schematicLabel' fill-opacity='1' stroke='none' ><text x='0' y='3.75'>Outer Power Input</text></g></g></g><g partID='854172440' id='partLabel'><g transform='translate(111.858,0)' ><g font-size='5' font-style='normal' font-weight='normal' fill='#000000' font-family="'DroidSans'" id='schematicLabel' fill-opacity='1' stroke='none' ><text x='0' y='3.75'>Optocoupler</text><text x='0' y='8.75'>PC817</text></g></g></g><g partID='854172850' id='partLabel'><g transform='translate(184.352,10.9661)' ><g font-size='5' font-style='normal' font-weight='normal' fill='#000000' font-family="'DroidSans'" id='schematicLabel' fill-opacity='1' stroke='none' ><text x='0' y='3.75'>R2</text><text x='0' y='8.75'>1k&#x3a9;</text></g></g></g><g partID='854174070' id='partLabel'><g transform='translate(227.908,176.922)' ><g font-size='5' font-style='normal' font-weight='normal' fill='#000000' font-family="'DroidSans'" id='schematicLabel' fill-opacity='1' stroke='none' ><text x='0' y='3.75'>R3</text><text x='0' y='8.75'>1k&#x3a9;</text></g></g></g><g partID='854174450' id='partLabel'><g transform='translate(168.521,156.19)' ><g transform='matrix(0,1,-1,0,0,0)'  ><g font-size='5' font-style='normal' font-weight='normal' fill='#000000' font-family="'DroidSans'" id='schematicLabel' fill-opacity='1' stroke='none' ><text x='0' y='3.75'>R4</text><text x='0' y='8.75'>470k&#x3a9;</text></g></g></g></g><g partID='854172470' id='partLabel'><g transform='translate(55.8189,11.6772)' ><g font-size='5' font-style='normal' font-weight='normal' fill='#000000' font-family="'DroidSans'" id='schematicLabel' fill-opacity='1' stroke='none' ><text x='0' y='3.75'>R1</text><text x='0' y='8.75'>1k&#x3a9;</text></g></g></g><g partID='854173630' id='partLabel'><g transform='translate(219.604,106.202)' ><g font-size='5' font-style='normal' font-weight='normal' fill='#000000' font-family="'DroidSans'" id='schematicLabel' fill-opacity='1' stroke='none' ><text x='0' y='3.75'>LED OFF</text></g></g></g><g partID='854173600' id='partLabel'><g transform='translate(177.738,104.78)' ><g font-size='5' font-style='normal' font-weight='normal' fill='#000000' font-family="'DroidSans'" id='schematicLabel' fill-opacity='1' stroke='none' ><text x='0' y='3.75'>LED ON</text></g></g></g></svg>